<svg xmlns="http://www.w3.org/2000/svg" viewBox="0 0 401.05 138.96"><defs><style>.cls-1{fill:#52af45;}</style></defs><g id="Layer_2" data-name="Layer 2"><g id="Layer_1-2" data-name="Layer 1"><path d="M193.68,47.41v.71c-3.56,0-9,2.76-15.49,18.42l-15.58,43.52h-3.2c-8.28-19.31-13.62-31.77-17.18-39.87L128,110.06h-3.2C102.36,57.64,101.2,55.33,101.2,55.33c-3-7.12-4.27-7-6.58-7.21v-.71h27.76v.71c-5.69,0-1.15,10.32-1.15,10.32L134.67,89l7.12-19.85c-5.43-12.64-6-13.79-6-13.79-3-7.12-4.27-7-6.58-7.21v-.71H157v.71c-5.7,0-1.16,10.32-1.16,10.32L169.2,89.06l8-22.52c2.23-6.32.27-18.42-8.81-18.42v-.71Z"/><path d="M217.35,109.35v.71H195.1v-.71c3.38-1,3.47-4.81,3.47-9.34V78.29c0-3.12-1-4.36-4.62-5.7v-.71l19.75-3.74V100C213.7,104.9,214.15,108.46,217.35,109.35Z"/><path d="M271.2,109.35v.71H249v-.71c3.38-1,3.56-4.89,3.56-9.43V82c0-5.08-1.87-7.48-6.14-7.48-2,0-4,1.6-5.25,3.47v22c0,4.89.44,8.45,3.64,9.34v.71H222.51v-.71c3.39-1,3.48-4.72,3.48-9.34V78.29c0-3.12-1-4.36-4.63-5.7v-.71l19.76-3.74v8.64c2.31-4.72,7-8.64,11.83-8.64,7.12,0,14.6,2.85,14.6,13.53V99.92C267.55,104.81,268.08,108.55,271.2,109.35Z"/><path d="M297.72,109.35v.71H275.47v-.71c3.38-1,3.47-4.72,3.47-9.34V53.81c0-3.11-1.06-4.36-4.71-5.69v-.71l19.84-3.74V100C294.07,104.9,294.52,108.46,297.72,109.35Zm32.49-.09v.8H313.74c-6.14,0-6.94-1.6-12.9-10.5-2.67-3.83-5.16-7.74-5.16-7.74l10.41-10.68c3.91-4.1,5-11.48-.62-11.48v-.72h24.2v.72c-5.07,0-16.73,5.51-24.74,13.79l14.95,19C322.82,106.59,326.2,109.26,330.21,109.26Z"/><path d="M372.22,88.61H348c0,13.53,4.27,17.09,10.23,18.43,4.45,1,10.42-1.69,12.2-9.26l.8.18c-1.16,6.58-7.66,12.9-18.78,12.9a21,21,0,0,1-21.09-21.27c0-15.13,11.48-21.45,22.42-21.45C363.23,68.14,372.22,71.88,372.22,88.61Zm-12.91-.8c0-11.21-1.15-18.87-5.16-18.87S348,79.27,348,87.81Z"/><path d="M401.05,109.35v.71H378.8v-.71c3.39-1,3.48-4.72,3.48-9.34V53.81c0-3.11-1.07-4.36-4.72-5.69v-.71l19.85-3.74V100C397.41,104.9,397.85,108.46,401.05,109.35Z"/><path d="M22.76,138.94a9.57,9.57,0,1,1,10.11-9A9.59,9.59,0,0,1,22.76,138.94Zm.88-15.4a5.85,5.85,0,1,0,5.51,6.18A5.86,5.86,0,0,0,23.64,123.54Z"/><path d="M82,128.29a8.35,8.35,0,1,1,8.82-7.86A8.37,8.37,0,0,1,82,128.29Zm.77-13.44a5.11,5.11,0,1,0,4.81,5.39A5.12,5.12,0,0,0,82.8,114.85Z"/><path class="cls-1" d="M21.56,118a11.31,11.31,0,0,1,12.84,8.6l36.7-6a11.32,11.32,0,0,1,22.24-3.64l10-1.62C93.87,86.38,84.54,57.71,75.1,28.73L60.56,31.11c-.62-3.81-1.17-7.24-1.74-10.67C56.58,7,45.06-1.75,32.24.3,19.12,2.39,10.86,14.21,13,27.77c.57,3.52,1.15,7,1.76,10.78L0,41c1,30.38,2,60.47,3.06,90.75l9.07-1.49A11.32,11.32,0,0,1,21.56,118Zm44.12-15.56L46,83.51l5.9-8.71,30,24.91Zm-.8-61.29a4.83,4.83,0,1,1-9.53,1.54,4.78,4.78,0,0,1,4-5.51A4.69,4.69,0,0,1,64.88,41.14ZM17.08,22c0-8.87,7.27-16.3,15.92-17.51,8.82-1.22,17.6,3.71,20.3,12.2,1.51,4.74,1.75,9.89,2.6,15l-36.41,6C18.61,32.37,17.05,27.19,17.08,22Zm25.68,46.3-6.94,7.6L18.28,62.39l11.29-2.06ZM17.94,43.89A4.88,4.88,0,0,1,23.44,48a5,5,0,0,1-4.13,5.52,4.92,4.92,0,0,1-5.47-4.16A4.81,4.81,0,0,1,17.94,43.89Zm52.78,7.79S42.47,67.16,37,107l-18.38,3.11S40.17,59.84,70.72,51.68Z"/><path class="cls-1" d="M144.46,119.29H93.32a11.76,11.76,0,0,1,.08,1.34,13,13,0,0,1-.09,1.4h51.15a1.37,1.37,0,1,0,0-2.74Z"/><path class="cls-1" d="M132.46,125.72H92.38a11.48,11.48,0,0,1-1.74,2.74h41.82a1.37,1.37,0,0,0,0-2.74Z"/><path class="cls-1" d="M197.15,51.45a8.5,8.5,0,1,1,8.45,8.46A8.4,8.4,0,0,1,197.15,51.45Z"/></g></g></svg>